<svg width="18" height="18" viewBox="0 0 18 18" fill="none" xmlns="http://www.w3.org/2000/svg">
<path d="M10.591 9L17.6705 1.9205C17.8815 1.70952 18 1.42337 18 1.125C18 0.826634 17.8815 0.540485 17.6705 0.329506C17.4595 0.118527 17.1734 1.99076e-08 16.875 1.67638e-08C16.5766 1.362e-08 16.2905 0.118527 16.0795 0.329506L9 7.409L1.9205 0.329506C1.70952 0.118527 1.42337 0 1.125 0C0.826634 0 0.540485 0.118527 0.329506 0.329506C0.118527 0.540485 0 0.826634 0 1.125C0 1.42337 0.118527 1.70952 0.329506 1.9205L7.409 9L0.329506 16.0795C0.118527 16.2905 1.362e-08 16.5766 1.67638e-08 16.875C1.99076e-08 17.1734 0.118527 17.4595 0.329506 17.6705C0.540485 17.8815 0.826634 18 1.125 18C1.42337 18 1.70952 17.8815 1.9205 17.6705L9 10.591L16.0795 17.6705C16.2905 17.8815 16.5766 18 16.875 18C17.1734 18 17.4595 17.8815 17.6705 17.6705C17.8815 17.4595 18 17.1734 18 16.875C18 16.5766 17.8815 16.2905 17.6705 16.0795L10.591 9Z" fill="#B4B4B4"/>
</svg>
