<svg width="70" height="70" viewBox="0 0 70 70" fill="none" xmlns="http://www.w3.org/2000/svg">
<path d="M15.3714 12.0783C12.6529 12.5387 10.943 14.0511 10.1975 16.6708C10.011 17.3398 10 18.0302 10 27.7413C10 37.4419 10.011 38.1433 10.1975 38.8118C10.866 41.201 12.4884 42.7359 14.8454 43.2618C15.7334 43.4483 22.0143 43.6233 29.1831 43.6343L33.787 43.6453L34.993 45.0372C39.7724 50.5507 45.6258 57.149 45.8673 57.3025C46.0648 57.434 46.3713 57.5 46.7772 57.5C47.5227 57.5 48.0267 57.182 48.3227 56.5246C48.5092 56.1081 48.5312 55.6807 48.5312 49.8167V43.5578L50.9207 43.4923C53.6171 43.4268 54.5051 43.2733 55.7441 42.6924C57.213 41.991 58.2765 40.6316 58.8025 38.8013C58.989 38.1438 59 37.4309 59 27.7418C59 18.0522 58.989 17.3398 58.8025 16.6823C58.145 14.3586 56.7085 12.9227 54.3741 12.2543L53.5191 12.0133L34.7195 12.0023C24.3817 11.9908 15.6784 12.0238 15.3714 12.0783ZM53.1566 15.5859C53.9351 15.7504 54.4501 16.0354 54.8556 16.4959C55.5131 17.2413 55.4916 16.8028 55.4916 27.7968V37.8808L55.1846 38.5058C54.5486 39.7992 54.1431 39.9087 49.7367 40.0076C45.8783 40.0951 45.8123 40.1061 45.3193 40.8956C45.0783 41.268 45.0783 41.378 45.0233 46.2006L44.9683 51.1111L40.3644 45.8606C37.8324 42.9669 35.64 40.5116 35.4865 40.3911C35.2235 40.1936 34.8615 40.1826 26.3882 40.1061C16.7529 40.0186 15.6239 39.9636 14.8014 39.5582C14.1544 39.2292 13.7274 38.5828 13.5629 37.7059C13.4859 37.2999 13.4529 33.7372 13.4749 27.3473L13.5079 17.6033L13.7599 17.0553C13.8914 16.7593 14.0889 16.4194 14.1984 16.3099C14.4394 16.0359 15.0864 15.7069 15.6124 15.5864C16.2594 15.4325 52.4441 15.4325 53.1566 15.5859Z" fill="#B4B4B4"/>
<line x1="35" y1="18" x2="35" y2="38" stroke="#B4B4B4" stroke-width="2"/>
<line x1="25" y1="28" x2="45" y2="28" stroke="#B4B4B4" stroke-width="2"/>
</svg>
