<svg width="40" height="50" viewBox="0 0 40 50" fill="none" xmlns="http://www.w3.org/2000/svg">
<g clip-path="url(#clip0_152_37)">
<path d="M16.0602 12.7965C13.1222 13.1725 10.6542 15.3685 9.92692 18.257C9.73892 18.994 9.67967 19.6668 9.67967 21.0268V22.1743L9.36817 22.199C8.53717 22.2683 7.81017 22.9558 7.65192 23.8313C7.61742 24.0193 7.60242 25.686 7.61242 28.7772C7.63217 33.397 7.63217 33.4462 7.73617 33.8222C8.20592 35.494 9.27442 36.602 10.8967 37.1115L11.3369 37.25H16.9999H22.6632L23.1034 37.1115C24.7257 36.602 25.7942 35.494 26.2639 33.8222C26.3679 33.4462 26.3679 33.392 26.3877 28.7772C26.3977 25.671 26.3827 24.019 26.3482 23.8313C26.1899 22.9508 25.4727 22.2683 24.6369 22.199L24.3204 22.1743V21.0318C24.3154 18.9395 24.1374 17.98 23.5142 16.7582C22.4014 14.572 20.2992 13.0932 17.8904 12.7965C17.4104 12.732 16.5349 12.737 16.0602 12.7965ZM17.9694 14.2505C20.0764 14.6215 21.8324 16.0955 22.5297 18.0838C22.8214 18.9148 22.8562 19.2065 22.8612 20.7548V22.1645H16.9999H11.1387V20.7548C11.1437 19.2018 11.1782 18.9198 11.4652 18.0938C11.7619 17.2578 12.1874 16.5753 12.8104 15.9423C13.6712 15.0668 14.7939 14.4733 15.9907 14.2558C16.5202 14.1615 17.4352 14.1615 17.9694 14.2505ZM24.7257 23.7223C24.7949 23.7718 24.8789 23.8805 24.9087 23.9598C24.9532 24.0638 24.9629 25.2755 24.9532 28.718C24.9334 33.8767 24.9582 33.496 24.5872 34.213C24.2359 34.8807 23.5534 35.4595 22.8312 35.6968L22.4652 35.8155H16.9999H11.5344L11.1684 35.6968C10.4462 35.4593 9.76367 34.8807 9.41267 34.213C9.04167 33.4957 9.06142 33.842 9.06142 28.6043V23.9103L9.22467 23.7668L9.38292 23.6232H16.9949C24.4834 23.6235 24.6072 23.6235 24.7257 23.7223Z" fill="#2D2A2A"/>
<path d="M16.3126 26.2746C15.4321 26.5121 14.6853 27.2688 14.4528 28.1491C14.3588 28.5251 14.3588 29.1086 14.4528 29.4846C14.6606 30.2761 15.2888 30.9683 16.0751 31.2651L16.3076 31.3541V32.5066V33.6641H17.0001H17.6926V32.5066V31.3493L17.9796 31.2456C18.3308 31.1121 18.7956 30.7758 19.0478 30.4641C19.7056 29.6481 19.8096 28.5053 19.3101 27.5608C18.9936 26.9623 18.3356 26.4431 17.6681 26.2698C17.3068 26.1758 16.6686 26.1806 16.3126 26.2746ZM17.5193 27.7486C18.6076 28.2531 18.2908 29.9101 17.0941 29.9941C16.5698 30.0336 16.1396 29.7913 15.9318 29.3363C15.7241 28.9011 15.8081 28.3273 16.1248 27.9811C16.4363 27.6398 17.0643 27.5358 17.5193 27.7486Z" fill="#2D2A2A"/>
</g>
<defs>
<clipPath id="clip0_152_37">
<rect width="25" height="25" fill="white" transform="translate(4.5 12.5)"/>
</clipPath>
</defs>
</svg>
