<svg width="28" height="28" viewBox="0 0 28 28" fill="none" xmlns="http://www.w3.org/2000/svg">
<g clip-path="url(#clip0_9_112)">
<path d="M9.15039 25.3713C9.15039 25.5361 9.24189 25.6872 9.38739 25.7642C9.53278 25.8412 9.70955 25.8313 9.84544 25.7382L12.906 23.6484L9.15045 21.8585V25.3713H9.15039Z" fill="#848484"/>
<path d="M27.3571 1.80238C27.273 1.72488 27.1645 1.68433 27.0549 1.68433C26.9887 1.68433 26.9228 1.69899 26.8604 1.72966L0.439123 14.69C0.169069 14.8227 -0.00181872 15.0985 1.46056e-05 15.4002C0.00184793 15.7015 0.175625 15.9754 0.447623 16.1051L7.41103 19.4231L21.3343 7.97929L9.13629 20.2451L17.811 24.3784C17.9175 24.4295 18.0339 24.4549 18.149 24.4549C18.2472 24.4549 18.3445 24.437 18.4371 24.4006C18.6391 24.3207 18.7997 24.1607 18.8798 23.9586L27.4685 2.29204C27.5365 2.12155 27.4921 1.9266 27.3571 1.80238Z" fill="#848484"/>
</g>
<defs>
<clipPath id="clip0_9_112">
<rect width="27.5" height="27.5" fill="white"/>
</clipPath>
</defs>
</svg>
