<svg width="41" height="50" viewBox="0 0 41 50" fill="none" xmlns="http://www.w3.org/2000/svg">
<g clip-path="url(#clip0_159_38)">
<path d="M8.20175 13.9508C7.07179 14.1151 6.10641 15.0035 5.84459 16.113C5.73149 16.6007 5.73149 30.3948 5.84459 30.8877C5.99357 31.5143 6.36849 32.0946 6.87159 32.4748C7.46205 32.9214 8.06811 33.1014 9.01321 33.1063H9.51137L9.52671 34.5854C9.54205 35.9978 9.54725 36.0695 9.66009 36.316C9.89643 36.8295 10.2662 37.076 10.7849 37.0812C11.3394 37.0812 11.5295 36.9426 13.8097 34.919L15.8434 33.1112L22.3759 33.0959L28.9032 33.0806L29.2833 32.942C30.0022 32.6802 30.5724 32.1973 30.9011 31.5707C31.2554 30.8929 31.2401 31.3243 31.2401 23.5029C31.2401 15.7791 31.2505 16.1231 30.9372 15.5017C30.5982 14.834 29.9666 14.2846 29.2477 14.0431L28.9037 13.9251L18.6842 13.9199C13.0651 13.9147 8.34553 13.9303 8.20175 13.9508ZM29.0007 15.5633C29.3088 15.7175 29.5605 15.9947 29.6837 16.3285C29.7248 16.4517 29.7454 18.2749 29.7454 23.5079L29.7506 30.5229L29.5914 30.8362C29.4887 31.0416 29.3655 31.206 29.2217 31.3087C28.78 31.6321 29.1448 31.6168 21.8934 31.6168H15.2836L13.1576 33.5015L11.0316 35.3862L11.0163 33.5067L11.0059 31.622L9.65515 31.6066C8.41235 31.5913 8.29431 31.5809 8.07331 31.4834C7.79095 31.3497 7.51873 31.0879 7.37989 30.8157C7.28759 30.6204 7.28239 30.4202 7.26705 23.6054C7.25665 18.4236 7.26705 16.544 7.31333 16.3899C7.39549 16.1075 7.63183 15.7789 7.85257 15.6452C8.27377 15.3834 7.76521 15.3935 18.5807 15.4039L28.6976 15.4143L29.0007 15.5633Z" fill="#2D2A2A"/>
<path d="M11.1599 20.9402C11.0314 20.9659 10.7543 21.0686 10.5437 21.1713C8.96208 21.9469 8.6077 24.0831 9.8505 25.3259C11.1445 26.6254 13.2861 26.2606 14.0667 24.607C14.421 23.8623 14.4106 23.1024 14.0357 22.3421C13.517 21.2792 12.3462 20.7091 11.1599 20.9402ZM12.1666 22.4706C12.6494 22.6913 12.9266 23.2563 12.8033 23.7648C12.6801 24.263 12.2025 24.6327 11.6684 24.6327C11.391 24.6327 10.9545 24.3862 10.78 24.1294C10.5642 23.8265 10.5335 23.3538 10.6978 23.015C10.9597 22.4758 11.6273 22.2241 12.1666 22.4706Z" fill="#2D2A2A"/>
<path d="M17.867 20.9659C16.7423 21.2381 15.8897 22.3218 15.8848 23.4874C15.8796 24.7611 16.84 25.8804 18.1086 26.0809C19.8906 26.3583 21.4314 24.7406 21.0666 22.9791C20.7684 21.5358 19.31 20.6167 17.867 20.9659ZM19.0994 22.5579C19.4486 22.7734 19.6488 23.1587 19.6233 23.5643C19.5617 24.427 18.6423 24.9046 17.9081 24.4476C17.5589 24.2318 17.3587 23.8467 17.3842 23.4411C17.4458 22.5784 18.3649 22.1008 19.0994 22.5579Z" fill="#2D2A2A"/>
<path d="M24.6817 20.9555C23.3979 21.2688 22.5146 22.5784 22.7148 23.8724C22.8997 25.0895 23.896 26.0141 25.1235 26.1012C26.9466 26.2397 28.3537 24.427 27.7734 22.6962C27.5423 22.008 27.1419 21.5304 26.5254 21.2017C25.9555 20.8991 25.2878 20.8117 24.6817 20.9555ZM25.6627 22.4346C25.9245 22.5168 26.2737 22.8558 26.3611 23.1177C26.397 23.2204 26.4126 23.4463 26.4022 23.6106C26.3715 24.0162 26.1814 24.2988 25.8013 24.4889C25.3185 24.7354 24.8822 24.6584 24.5073 24.2731C23.6753 23.4206 24.5125 22.0907 25.6627 22.4346Z" fill="#2D2A2A"/>
</g>
<defs>
<clipPath id="clip0_159_38">
<rect width="26" height="26" fill="white" transform="translate(5.5 12.5)"/>
</clipPath>
</defs>
</svg>
