<svg width="70" height="70" viewBox="0 0 70 70" fill="none" xmlns="http://www.w3.org/2000/svg">
<path d="M56.1502 27.9481C53.7443 25.5606 50.3787 23.8603 46.6733 23.1605C46.2262 23.0763 45.795 23.3702 45.7104 23.8174C45.6259 24.2646 45.92 24.6957 46.3674 24.7802C53.4235 26.1128 58.3517 31.0165 58.3517 36.7049C58.3517 41.3898 55.0163 45.6005 49.6473 47.6938C49.3732 47.8007 49.1768 48.0455 49.1321 48.3363C48.8064 50.4515 49.251 52.6042 50.3375 54.3975C47.9652 53.7639 46.0436 51.9435 45.2963 49.4767C45.1833 49.1038 44.8235 48.8603 44.4362 48.8947C43.8541 48.9452 43.2674 48.971 42.6923 48.971C37.565 48.971 32.7521 46.9931 29.8179 43.68C29.5163 43.3392 28.9954 43.3076 28.6545 43.6093C28.3137 43.9111 28.2821 44.4319 28.5839 44.7727C31.8261 48.4335 37.1003 50.6192 42.6923 50.6192C43.1031 50.6192 43.5191 50.6071 43.9355 50.5832C44.533 52.124 45.5608 53.4959 46.8775 54.4954C48.4242 55.6695 50.2677 56.29 52.2085 56.29C52.5411 56.29 52.8411 56.09 52.9691 55.783C53.0971 55.476 53.028 55.1222 52.794 54.8858C51.2742 53.3518 50.511 51.1965 50.7055 49.0435C53.367 47.9262 55.6237 46.2708 57.2543 44.235C59.0506 41.9924 60 39.3886 60 36.7049C60 33.5217 58.6329 30.4118 56.1502 27.9481Z" fill="#B4B4B4"/>
<path d="M44.6154 27.9142C44.6154 24.1612 42.7901 20.6448 39.4757 18.0128C36.2171 15.4251 31.8957 14 27.3077 14C22.7193 14 18.3978 15.4251 15.1395 18.0128C11.8252 20.6448 10 24.1612 10 27.9142C10 30.598 10.9495 33.2019 12.7456 35.4444C14.3762 37.4801 16.633 39.1356 19.2944 40.2528C19.4889 42.4059 18.7257 44.5611 17.2059 46.0952C16.9719 46.3314 16.9027 46.6854 17.0308 46.9924C17.1588 47.2994 17.4589 47.4994 17.7914 47.4994C19.7323 47.4994 21.5757 46.8789 23.1224 45.7048C24.4391 44.7054 25.4669 43.3334 26.0644 41.7925C26.4808 41.8165 26.8968 41.8286 27.3076 41.8286C31.8957 41.8286 36.2171 40.4035 39.4756 37.8158C42.7901 35.1836 44.6154 31.6673 44.6154 27.9142ZM25.5638 40.104C25.1753 40.07 24.8167 40.3129 24.7037 40.686C23.9564 43.1526 22.0349 44.9731 19.6625 45.6067C20.749 43.8135 21.1936 41.6607 20.8679 39.5454C20.8232 39.2547 20.6268 39.0098 20.3527 38.9029C14.9837 36.8099 11.6484 32.5992 11.6484 27.9142C11.6484 21.1507 18.6731 15.6482 27.3077 15.6482C35.9423 15.6482 42.967 21.1507 42.967 27.9142C42.967 34.6777 35.9423 40.1802 27.3077 40.1802C26.7326 40.1802 26.1459 40.1546 25.5638 40.104Z" fill="#B4B4B4"/>
</svg>
