<svg width="30" height="30" viewBox="0 0 30 30" fill="none" xmlns="http://www.w3.org/2000/svg">
<path d="M16.9082 16.494C18.3467 14.9967 19.1464 12.9783 19.1321 10.8801C19.1179 8.78201 18.291 6.77504 16.8322 5.29828C15.3735 3.82151 13.4017 2.99517 11.3483 3.00002C9.29478 3.00487 7.32677 3.84051 5.87474 5.32415C4.42271 6.80779 3.60486 8.81864 3.60012 10.9168C3.59537 13.015 4.40411 15.0297 5.84942 16.5201C7.29472 18.0106 9.25893 18.8556 11.3124 18.8701C13.3658 18.8846 15.3413 18.0676 16.8067 16.5978L25.4357 25.4146M20.8166 19.3465L26.4001 25.0515L25.0804 26.4L19.4969 20.695" stroke="#2D2A2A" stroke-width="1.8" stroke-linecap="round"/>
</svg>
