<svg width="75" height="50" viewBox="0 0 75 50" fill="none" xmlns="http://www.w3.org/2000/svg">
<path d="M25 47.0833C37.1962 47.0833 47.0833 37.1963 47.0833 25C47.0833 12.8037 37.1962 2.91666 25 2.91666C12.8037 2.91666 2.91663 12.8037 2.91663 25C2.91663 37.1963 12.8037 47.0833 25 47.0833Z" stroke="white" stroke-width="2.5"/>
<path d="M25 28.75C30.2927 28.75 34.5833 24.4594 34.5833 19.1666C34.5833 13.8739 30.2927 9.58331 25 9.58331C19.7072 9.58331 15.4166 13.8739 15.4166 19.1666C15.4166 24.4594 19.7072 28.75 25 28.75Z" stroke="white" stroke-width="2.5"/>
<path d="M8.90149 40.1167C10.0823 36.7914 12.2639 33.9134 15.1465 31.878C18.0291 29.8427 21.4712 28.75 24.9999 28.75C28.5287 28.75 31.9708 29.8427 34.8534 31.878C37.736 33.9134 39.9176 36.7914 41.0984 40.1167" stroke="white" stroke-width="2.5"/>
<rect x="55" y="24" width="20" height="2" fill="white"/>
<rect x="64" y="15" width="2" height="20" fill="white"/>
</svg>
