<svg width="30" height="30" viewBox="0 0 30 30" fill="none" xmlns="http://www.w3.org/2000/svg">
<g clip-path="url(#clip0_7_13)">
<path d="M17.6514 14.9998L29.4506 3.20059C29.8022 2.84896 29.9998 2.37205 29.9998 1.87476C29.9998 1.37748 29.8022 0.900565 29.4506 0.548933C29.099 0.197301 28.622 -0.000244107 28.1248 -0.000244113C27.6275 -0.000244118 27.1506 0.197301 26.7989 0.548933L14.9998 12.3481L3.20059 0.548933C2.84896 0.197301 2.37205 -0.000244141 1.87476 -0.000244141C1.37748 -0.000244141 0.900565 0.197301 0.548933 0.548933C0.197301 0.900565 -0.000244141 1.37748 -0.000244141 1.87476C-0.000244141 2.37205 0.197301 2.84896 0.548933 3.20059L12.3481 14.9998L0.548933 26.7989C0.197301 27.1506 -0.000244118 27.6275 -0.000244113 28.1248C-0.000244107 28.622 0.197301 29.099 0.548933 29.4506C0.900565 29.8022 1.37748 29.9998 1.87476 29.9998C2.37205 29.9998 2.84896 29.8022 3.20059 29.4506L14.9998 17.6514L26.7989 29.4506C27.1506 29.8022 27.6275 29.9998 28.1248 29.9998C28.622 29.9998 29.099 29.8022 29.4506 29.4506C29.8022 29.099 29.9998 28.622 29.9998 28.1248C29.9998 27.6275 29.8022 27.1506 29.4506 26.7989L17.6514 14.9998Z" fill="#B4B4B4"/>
</g>
<defs>
<clipPath id="clip0_7_13">
<rect width="30" height="30" fill="white"/>
</clipPath>
</defs>
</svg>
